<?xml version="1.0" encoding="UTF-8"?> <svg xmlns="http://www.w3.org/2000/svg" viewBox="0 0 318.64 385.84"> <defs> <style>.cls-1{fill:#c2a5e8;}</style> </defs> <g id="Layer_2" data-name="Layer 2"> <g id="ref"> <path class="cls-1" d="M300.85,245.26H290.1a1.71,1.71,0,0,1-1.48-2.57l3.73-6.46a5.69,5.69,0,0,0,0-5.7l-16.15-28-24.7,42.72h-8.19a1.71,1.71,0,0,1-1.48-2.57l27.15-47a5.69,5.69,0,0,0,0-5.7l-16.15-28L159.06,324.23l-4.26-7.37a4.53,4.53,0,0,1,0-4.56l90.81-157.07a5.69,5.69,0,0,0,0-5.7l-16.15-28-93.8,162.23-4.25-7.37a4.53,4.53,0,0,1,0-4.56l90.83-157.11a5.69,5.69,0,0,0,0-5.7L206.08,81,111.14,245.26H103a1.71,1.71,0,0,1-1.48-2.57L198.86,74.23a5.72,5.72,0,0,0,0-5.7l-16.16-28L64.35,245.26H56.16a1.71,1.71,0,0,1-1.48-2.57l120.81-209a5.69,5.69,0,0,0,0-5.7L159.32,0,0,276.08H95.61l63.46,109.75,63.47-109.75h96.1Z"></path> </g> </g> </svg> 